M48
;DRILL file {KiCad (5.0.0)} date 07/27/19 13:16:14
;FORMAT={-:-/ absolute / metric / decimal}
FMAT,2
METRIC,TZ
T1C0.400
T2C1.000
%
G90
G05
M71
T1
X111.379Y-65.43
X113.894Y-59.004
X117.246Y-62.763
X119.177Y-52.451
X120.218Y-60.223
X126.467Y-64.008
X133.121Y-54.534
X137.541Y-57.48
X139.395Y-58.217
X141.021Y-61.62
T2
X102.921Y-51.994
X102.921Y-54.534
X102.921Y-57.074
X102.921Y-59.614
X102.921Y-62.154
X102.921Y-64.694
X148.615Y-52.603
X148.615Y-55.143
X148.615Y-57.683
X148.615Y-60.223
X148.615Y-62.763
X148.615Y-65.303
X106.807Y-48.158
X109.347Y-48.158
X111.887Y-48.158
X114.427Y-48.158
X116.967Y-48.158
X119.507Y-48.158
X122.047Y-48.158
X124.587Y-48.158
X127.127Y-48.158
X129.667Y-48.158
X132.207Y-48.158
X134.747Y-48.158
X137.287Y-48.158
X139.827Y-48.158
X142.367Y-48.158
X144.907Y-48.158
T0
M30
