G04 #@! TF.GenerationSoftware,KiCad,Pcbnew,(5.0.0)*
G04 #@! TF.CreationDate,2019-07-27T13:15:58+05:30*
G04 #@! TF.ProjectId,SerialShiftLCD,53657269616C53686966744C43442E6B,rev?*
G04 #@! TF.SameCoordinates,Original*
G04 #@! TF.FileFunction,Soldermask,Top*
G04 #@! TF.FilePolarity,Negative*
%FSLAX46Y46*%
G04 Gerber Fmt 4.6, Leading zero omitted, Abs format (unit mm)*
G04 Created by KiCad (PCBNEW (5.0.0)) date 07/27/19 13:15:58*
%MOMM*%
%LPD*%
G01*
G04 APERTURE LIST*
%ADD10R,2.100000X2.100000*%
%ADD11O,2.100000X2.100000*%
%ADD12R,1.700000X1.200000*%
G04 APERTURE END LIST*
D10*
G04 #@! TO.C,J1*
X102920800Y-51993800D03*
D11*
X102920800Y-54533800D03*
X102920800Y-57073800D03*
X102920800Y-59613800D03*
X102920800Y-62153800D03*
X102920800Y-64693800D03*
G04 #@! TD*
G04 #@! TO.C,J2*
X148615400Y-52603400D03*
X148615400Y-55143400D03*
X148615400Y-57683400D03*
X148615400Y-60223400D03*
X148615400Y-62763400D03*
D10*
X148615400Y-65303400D03*
G04 #@! TD*
G04 #@! TO.C,J3*
X106807000Y-48158400D03*
D11*
X109347000Y-48158400D03*
X111887000Y-48158400D03*
X114427000Y-48158400D03*
X116967000Y-48158400D03*
X119507000Y-48158400D03*
X122047000Y-48158400D03*
X124587000Y-48158400D03*
X127127000Y-48158400D03*
X129667000Y-48158400D03*
X132207000Y-48158400D03*
X134747000Y-48158400D03*
X137287000Y-48158400D03*
X139827000Y-48158400D03*
X142367000Y-48158400D03*
X144907000Y-48158400D03*
G04 #@! TD*
D12*
G04 #@! TO.C,U1*
X129159400Y-64063800D03*
X129159400Y-62783800D03*
X129159400Y-61523800D03*
X129159400Y-60253800D03*
X129159400Y-58973800D03*
X129159400Y-57703800D03*
X129159400Y-56443800D03*
X129159400Y-55163800D03*
X122859400Y-55163800D03*
X122859400Y-56443800D03*
X122859400Y-57703800D03*
X122859400Y-58973800D03*
X122859400Y-60253800D03*
X122859400Y-61523800D03*
X122859400Y-62783800D03*
X122859400Y-64063800D03*
G04 #@! TD*
M02*
