G04 #@! TF.GenerationSoftware,KiCad,Pcbnew,(5.0.0)*
G04 #@! TF.CreationDate,2019-07-27T13:15:58+05:30*
G04 #@! TF.ProjectId,SerialShiftLCD,53657269616C53686966744C43442E6B,rev?*
G04 #@! TF.SameCoordinates,Original*
G04 #@! TF.FileFunction,Soldermask,Bot*
G04 #@! TF.FilePolarity,Negative*
%FSLAX46Y46*%
G04 Gerber Fmt 4.6, Leading zero omitted, Abs format (unit mm)*
G04 Created by KiCad (PCBNEW (5.0.0)) date 07/27/19 13:15:58*
%MOMM*%
%LPD*%
G01*
G04 APERTURE LIST*
%ADD10R,2.100000X2.100000*%
%ADD11O,2.100000X2.100000*%
%ADD12R,1.200000X1.300000*%
%ADD13C,0.100000*%
%ADD14C,1.825000*%
G04 APERTURE END LIST*
D10*
G04 #@! TO.C,J1*
X102920800Y-51993800D03*
D11*
X102920800Y-54533800D03*
X102920800Y-57073800D03*
X102920800Y-59613800D03*
X102920800Y-62153800D03*
X102920800Y-64693800D03*
G04 #@! TD*
G04 #@! TO.C,J2*
X148615400Y-52603400D03*
X148615400Y-55143400D03*
X148615400Y-57683400D03*
X148615400Y-60223400D03*
X148615400Y-62763400D03*
D10*
X148615400Y-65303400D03*
G04 #@! TD*
G04 #@! TO.C,J3*
X106807000Y-48158400D03*
D11*
X109347000Y-48158400D03*
X111887000Y-48158400D03*
X114427000Y-48158400D03*
X116967000Y-48158400D03*
X119507000Y-48158400D03*
X122047000Y-48158400D03*
X124587000Y-48158400D03*
X127127000Y-48158400D03*
X129667000Y-48158400D03*
X132207000Y-48158400D03*
X134747000Y-48158400D03*
X137287000Y-48158400D03*
X139827000Y-48158400D03*
X142367000Y-48158400D03*
X144907000Y-48158400D03*
G04 #@! TD*
D12*
G04 #@! TO.C,Q1*
X137505400Y-59883800D03*
X139405400Y-59883800D03*
X138455400Y-61883800D03*
G04 #@! TD*
D13*
G04 #@! TO.C,R1*
G36*
X112724007Y-51728942D02*
X112755087Y-51733552D01*
X112785566Y-51741187D01*
X112815150Y-51751772D01*
X112843554Y-51765206D01*
X112870504Y-51781359D01*
X112895742Y-51800077D01*
X112919023Y-51821177D01*
X112940123Y-51844458D01*
X112958841Y-51869696D01*
X112974994Y-51896646D01*
X112988428Y-51925050D01*
X112999013Y-51954634D01*
X113006648Y-51985113D01*
X113011258Y-52016193D01*
X113012800Y-52047576D01*
X113012800Y-53232224D01*
X113011258Y-53263607D01*
X113006648Y-53294687D01*
X112999013Y-53325166D01*
X112988428Y-53354750D01*
X112974994Y-53383154D01*
X112958841Y-53410104D01*
X112940123Y-53435342D01*
X112919023Y-53458623D01*
X112895742Y-53479723D01*
X112870504Y-53498441D01*
X112843554Y-53514594D01*
X112815150Y-53528028D01*
X112785566Y-53538613D01*
X112755087Y-53546248D01*
X112724007Y-53550858D01*
X112692624Y-53552400D01*
X111182976Y-53552400D01*
X111151593Y-53550858D01*
X111120513Y-53546248D01*
X111090034Y-53538613D01*
X111060450Y-53528028D01*
X111032046Y-53514594D01*
X111005096Y-53498441D01*
X110979858Y-53479723D01*
X110956577Y-53458623D01*
X110935477Y-53435342D01*
X110916759Y-53410104D01*
X110900606Y-53383154D01*
X110887172Y-53354750D01*
X110876587Y-53325166D01*
X110868952Y-53294687D01*
X110864342Y-53263607D01*
X110862800Y-53232224D01*
X110862800Y-52047576D01*
X110864342Y-52016193D01*
X110868952Y-51985113D01*
X110876587Y-51954634D01*
X110887172Y-51925050D01*
X110900606Y-51896646D01*
X110916759Y-51869696D01*
X110935477Y-51844458D01*
X110956577Y-51821177D01*
X110979858Y-51800077D01*
X111005096Y-51781359D01*
X111032046Y-51765206D01*
X111060450Y-51751772D01*
X111090034Y-51741187D01*
X111120513Y-51733552D01*
X111151593Y-51728942D01*
X111182976Y-51727400D01*
X112692624Y-51727400D01*
X112724007Y-51728942D01*
X112724007Y-51728942D01*
G37*
D14*
X111937800Y-52639900D03*
D13*
G36*
X112724007Y-54703942D02*
X112755087Y-54708552D01*
X112785566Y-54716187D01*
X112815150Y-54726772D01*
X112843554Y-54740206D01*
X112870504Y-54756359D01*
X112895742Y-54775077D01*
X112919023Y-54796177D01*
X112940123Y-54819458D01*
X112958841Y-54844696D01*
X112974994Y-54871646D01*
X112988428Y-54900050D01*
X112999013Y-54929634D01*
X113006648Y-54960113D01*
X113011258Y-54991193D01*
X113012800Y-55022576D01*
X113012800Y-56207224D01*
X113011258Y-56238607D01*
X113006648Y-56269687D01*
X112999013Y-56300166D01*
X112988428Y-56329750D01*
X112974994Y-56358154D01*
X112958841Y-56385104D01*
X112940123Y-56410342D01*
X112919023Y-56433623D01*
X112895742Y-56454723D01*
X112870504Y-56473441D01*
X112843554Y-56489594D01*
X112815150Y-56503028D01*
X112785566Y-56513613D01*
X112755087Y-56521248D01*
X112724007Y-56525858D01*
X112692624Y-56527400D01*
X111182976Y-56527400D01*
X111151593Y-56525858D01*
X111120513Y-56521248D01*
X111090034Y-56513613D01*
X111060450Y-56503028D01*
X111032046Y-56489594D01*
X111005096Y-56473441D01*
X110979858Y-56454723D01*
X110956577Y-56433623D01*
X110935477Y-56410342D01*
X110916759Y-56385104D01*
X110900606Y-56358154D01*
X110887172Y-56329750D01*
X110876587Y-56300166D01*
X110868952Y-56269687D01*
X110864342Y-56238607D01*
X110862800Y-56207224D01*
X110862800Y-55022576D01*
X110864342Y-54991193D01*
X110868952Y-54960113D01*
X110876587Y-54929634D01*
X110887172Y-54900050D01*
X110900606Y-54871646D01*
X110916759Y-54844696D01*
X110935477Y-54819458D01*
X110956577Y-54796177D01*
X110979858Y-54775077D01*
X111005096Y-54756359D01*
X111032046Y-54740206D01*
X111060450Y-54726772D01*
X111090034Y-54716187D01*
X111120513Y-54708552D01*
X111151593Y-54703942D01*
X111182976Y-54702400D01*
X112692624Y-54702400D01*
X112724007Y-54703942D01*
X112724007Y-54703942D01*
G37*
D14*
X111937800Y-55614900D03*
G04 #@! TD*
D13*
G04 #@! TO.C,R2*
G36*
X143178607Y-54983342D02*
X143209687Y-54987952D01*
X143240166Y-54995587D01*
X143269750Y-55006172D01*
X143298154Y-55019606D01*
X143325104Y-55035759D01*
X143350342Y-55054477D01*
X143373623Y-55075577D01*
X143394723Y-55098858D01*
X143413441Y-55124096D01*
X143429594Y-55151046D01*
X143443028Y-55179450D01*
X143453613Y-55209034D01*
X143461248Y-55239513D01*
X143465858Y-55270593D01*
X143467400Y-55301976D01*
X143467400Y-56486624D01*
X143465858Y-56518007D01*
X143461248Y-56549087D01*
X143453613Y-56579566D01*
X143443028Y-56609150D01*
X143429594Y-56637554D01*
X143413441Y-56664504D01*
X143394723Y-56689742D01*
X143373623Y-56713023D01*
X143350342Y-56734123D01*
X143325104Y-56752841D01*
X143298154Y-56768994D01*
X143269750Y-56782428D01*
X143240166Y-56793013D01*
X143209687Y-56800648D01*
X143178607Y-56805258D01*
X143147224Y-56806800D01*
X141637576Y-56806800D01*
X141606193Y-56805258D01*
X141575113Y-56800648D01*
X141544634Y-56793013D01*
X141515050Y-56782428D01*
X141486646Y-56768994D01*
X141459696Y-56752841D01*
X141434458Y-56734123D01*
X141411177Y-56713023D01*
X141390077Y-56689742D01*
X141371359Y-56664504D01*
X141355206Y-56637554D01*
X141341772Y-56609150D01*
X141331187Y-56579566D01*
X141323552Y-56549087D01*
X141318942Y-56518007D01*
X141317400Y-56486624D01*
X141317400Y-55301976D01*
X141318942Y-55270593D01*
X141323552Y-55239513D01*
X141331187Y-55209034D01*
X141341772Y-55179450D01*
X141355206Y-55151046D01*
X141371359Y-55124096D01*
X141390077Y-55098858D01*
X141411177Y-55075577D01*
X141434458Y-55054477D01*
X141459696Y-55035759D01*
X141486646Y-55019606D01*
X141515050Y-55006172D01*
X141544634Y-54995587D01*
X141575113Y-54987952D01*
X141606193Y-54983342D01*
X141637576Y-54981800D01*
X143147224Y-54981800D01*
X143178607Y-54983342D01*
X143178607Y-54983342D01*
G37*
D14*
X142392400Y-55894300D03*
D13*
G36*
X143178607Y-52008342D02*
X143209687Y-52012952D01*
X143240166Y-52020587D01*
X143269750Y-52031172D01*
X143298154Y-52044606D01*
X143325104Y-52060759D01*
X143350342Y-52079477D01*
X143373623Y-52100577D01*
X143394723Y-52123858D01*
X143413441Y-52149096D01*
X143429594Y-52176046D01*
X143443028Y-52204450D01*
X143453613Y-52234034D01*
X143461248Y-52264513D01*
X143465858Y-52295593D01*
X143467400Y-52326976D01*
X143467400Y-53511624D01*
X143465858Y-53543007D01*
X143461248Y-53574087D01*
X143453613Y-53604566D01*
X143443028Y-53634150D01*
X143429594Y-53662554D01*
X143413441Y-53689504D01*
X143394723Y-53714742D01*
X143373623Y-53738023D01*
X143350342Y-53759123D01*
X143325104Y-53777841D01*
X143298154Y-53793994D01*
X143269750Y-53807428D01*
X143240166Y-53818013D01*
X143209687Y-53825648D01*
X143178607Y-53830258D01*
X143147224Y-53831800D01*
X141637576Y-53831800D01*
X141606193Y-53830258D01*
X141575113Y-53825648D01*
X141544634Y-53818013D01*
X141515050Y-53807428D01*
X141486646Y-53793994D01*
X141459696Y-53777841D01*
X141434458Y-53759123D01*
X141411177Y-53738023D01*
X141390077Y-53714742D01*
X141371359Y-53689504D01*
X141355206Y-53662554D01*
X141341772Y-53634150D01*
X141331187Y-53604566D01*
X141323552Y-53574087D01*
X141318942Y-53543007D01*
X141317400Y-53511624D01*
X141317400Y-52326976D01*
X141318942Y-52295593D01*
X141323552Y-52264513D01*
X141331187Y-52234034D01*
X141341772Y-52204450D01*
X141355206Y-52176046D01*
X141371359Y-52149096D01*
X141390077Y-52123858D01*
X141411177Y-52100577D01*
X141434458Y-52079477D01*
X141459696Y-52060759D01*
X141486646Y-52044606D01*
X141515050Y-52031172D01*
X141544634Y-52020587D01*
X141575113Y-52012952D01*
X141606193Y-52008342D01*
X141637576Y-52006800D01*
X143147224Y-52006800D01*
X143178607Y-52008342D01*
X143178607Y-52008342D01*
G37*
D14*
X142392400Y-52919300D03*
G04 #@! TD*
M02*
