G04 #@! TF.GenerationSoftware,KiCad,Pcbnew,(5.0.0)*
G04 #@! TF.CreationDate,2019-09-07T10:55:21+05:30*
G04 #@! TF.ProjectId,SerialShiftLCD,53657269616C53686966744C43442E6B,rev?*
G04 #@! TF.SameCoordinates,Original*
G04 #@! TF.FileFunction,Drawing*
%FSLAX46Y46*%
G04 Gerber Fmt 4.6, Leading zero omitted, Abs format (unit mm)*
G04 Created by KiCad (PCBNEW (5.0.0)) date 09/07/19 10:55:21*
%MOMM*%
%LPD*%
G01*
G04 APERTURE LIST*
%ADD10C,0.300000*%
G04 APERTURE END LIST*
D10*
X155546742Y-53261342D02*
X155761028Y-53332771D01*
X156118171Y-53332771D01*
X156261028Y-53261342D01*
X156332457Y-53189914D01*
X156403885Y-53047057D01*
X156403885Y-52904200D01*
X156332457Y-52761342D01*
X156261028Y-52689914D01*
X156118171Y-52618485D01*
X155832457Y-52547057D01*
X155689600Y-52475628D01*
X155618171Y-52404200D01*
X155546742Y-52261342D01*
X155546742Y-52118485D01*
X155618171Y-51975628D01*
X155689600Y-51904200D01*
X155832457Y-51832771D01*
X156189600Y-51832771D01*
X156403885Y-51904200D01*
X157046742Y-52547057D02*
X157546742Y-52547057D01*
X157761028Y-53332771D02*
X157046742Y-53332771D01*
X157046742Y-51832771D01*
X157761028Y-51832771D01*
X159261028Y-53332771D02*
X158761028Y-52618485D01*
X158403885Y-53332771D02*
X158403885Y-51832771D01*
X158975314Y-51832771D01*
X159118171Y-51904200D01*
X159189600Y-51975628D01*
X159261028Y-52118485D01*
X159261028Y-52332771D01*
X159189600Y-52475628D01*
X159118171Y-52547057D01*
X158975314Y-52618485D01*
X158403885Y-52618485D01*
X159903885Y-53332771D02*
X159903885Y-51832771D01*
X160546742Y-52904200D02*
X161261028Y-52904200D01*
X160403885Y-53332771D02*
X160903885Y-51832771D01*
X161403885Y-53332771D01*
X162618171Y-53332771D02*
X161903885Y-53332771D01*
X161903885Y-51832771D01*
X162761028Y-53475628D02*
X163903885Y-53475628D01*
X164975314Y-53332771D02*
X164261028Y-53332771D01*
X164261028Y-51832771D01*
X166332457Y-53189914D02*
X166261028Y-53261342D01*
X166046742Y-53332771D01*
X165903885Y-53332771D01*
X165689600Y-53261342D01*
X165546742Y-53118485D01*
X165475314Y-52975628D01*
X165403885Y-52689914D01*
X165403885Y-52475628D01*
X165475314Y-52189914D01*
X165546742Y-52047057D01*
X165689600Y-51904200D01*
X165903885Y-51832771D01*
X166046742Y-51832771D01*
X166261028Y-51904200D01*
X166332457Y-51975628D01*
X166975314Y-53332771D02*
X166975314Y-51832771D01*
X167332457Y-51832771D01*
X167546742Y-51904200D01*
X167689600Y-52047057D01*
X167761028Y-52189914D01*
X167832457Y-52475628D01*
X167832457Y-52689914D01*
X167761028Y-52975628D01*
X167689600Y-53118485D01*
X167546742Y-53261342D01*
X167332457Y-53332771D01*
X166975314Y-53332771D01*
X169261028Y-53332771D02*
X168403885Y-53332771D01*
X168832457Y-53332771D02*
X168832457Y-51832771D01*
X168689600Y-52047057D01*
X168546742Y-52189914D01*
X168403885Y-52261342D01*
X170546742Y-51832771D02*
X170261028Y-51832771D01*
X170118171Y-51904200D01*
X170046742Y-51975628D01*
X169903885Y-52189914D01*
X169832457Y-52475628D01*
X169832457Y-53047057D01*
X169903885Y-53189914D01*
X169975314Y-53261342D01*
X170118171Y-53332771D01*
X170403885Y-53332771D01*
X170546742Y-53261342D01*
X170618171Y-53189914D01*
X170689600Y-53047057D01*
X170689600Y-52689914D01*
X170618171Y-52547057D01*
X170546742Y-52475628D01*
X170403885Y-52404200D01*
X170118171Y-52404200D01*
X169975314Y-52475628D01*
X169903885Y-52547057D01*
X169832457Y-52689914D01*
X171189600Y-53332771D02*
X171975314Y-52332771D01*
X171189600Y-52332771D02*
X171975314Y-53332771D01*
X172475314Y-51975628D02*
X172546742Y-51904200D01*
X172689600Y-51832771D01*
X173046742Y-51832771D01*
X173189600Y-51904200D01*
X173261028Y-51975628D01*
X173332457Y-52118485D01*
X173332457Y-52261342D01*
X173261028Y-52475628D01*
X172403885Y-53332771D01*
X173332457Y-53332771D01*
M02*
