M48
;DRILL file {KiCad (5.0.0)} date 09/07/19 10:55:23
;FORMAT={-:-/ absolute / metric / decimal}
FMAT,2
METRIC,TZ
T1C0.400
T2C1.000
%
G90
G05
M71
T1
X135.89Y-41.91
X138.024Y-47.041
X141.554Y-39.7
X142.24Y-48.895
X143.485Y-43.612
X143.485Y-45.796
X145.11Y-41.834
X145.11Y-50.292
X150.495Y-47.625
X159.385Y-45.72
X160.655Y-44.45
X162.255Y-45.999
X163.195Y-43.815
X172.593Y-46.228
T2
X133.921Y-33.528
X136.462Y-33.528
X139.001Y-33.528
X141.541Y-33.528
X144.082Y-33.528
X146.621Y-33.528
X149.161Y-33.528
X151.701Y-33.528
X154.242Y-33.528
X156.781Y-33.528
X159.321Y-33.528
X161.862Y-33.528
X164.401Y-33.528
X166.941Y-33.528
X169.481Y-33.528
X172.022Y-33.528
X129.857Y-38.227
X129.857Y-40.767
X129.857Y-43.307
X129.857Y-45.847
X129.857Y-48.387
X129.857Y-50.927
T0
M30
