G04 #@! TF.GenerationSoftware,KiCad,Pcbnew,(5.1.6)-1*
G04 #@! TF.CreationDate,2020-10-13T23:31:01+05:30*
G04 #@! TF.ProjectId,SerialShiftLCD,53657269-616c-4536-9869-66744c43442e,rev?*
G04 #@! TF.SameCoordinates,Original*
G04 #@! TF.FileFunction,Legend,Bot*
G04 #@! TF.FilePolarity,Positive*
%FSLAX46Y46*%
G04 Gerber Fmt 4.6, Leading zero omitted, Abs format (unit mm)*
G04 Created by KiCad (PCBNEW (5.1.6)-1) date 2020-10-13 23:31:01*
%MOMM*%
%LPD*%
G01*
G04 APERTURE LIST*
%ADD10C,0.300000*%
G04 APERTURE END LIST*
D10*
X174063428Y-52931142D02*
X173849142Y-53002571D01*
X173492000Y-53002571D01*
X173349142Y-52931142D01*
X173277714Y-52859714D01*
X173206285Y-52716857D01*
X173206285Y-52574000D01*
X173277714Y-52431142D01*
X173349142Y-52359714D01*
X173492000Y-52288285D01*
X173777714Y-52216857D01*
X173920571Y-52145428D01*
X173992000Y-52074000D01*
X174063428Y-51931142D01*
X174063428Y-51788285D01*
X173992000Y-51645428D01*
X173920571Y-51574000D01*
X173777714Y-51502571D01*
X173420571Y-51502571D01*
X173206285Y-51574000D01*
X172777714Y-51502571D02*
X171920571Y-51502571D01*
X172349142Y-53002571D02*
X172349142Y-51502571D01*
X170849142Y-52931142D02*
X170992000Y-53002571D01*
X171277714Y-53002571D01*
X171420571Y-52931142D01*
X171492000Y-52788285D01*
X171492000Y-52216857D01*
X171420571Y-52074000D01*
X171277714Y-52002571D01*
X170992000Y-52002571D01*
X170849142Y-52074000D01*
X170777714Y-52216857D01*
X170777714Y-52359714D01*
X171492000Y-52502571D01*
X169492000Y-52931142D02*
X169634857Y-53002571D01*
X169920571Y-53002571D01*
X170063428Y-52931142D01*
X170134857Y-52859714D01*
X170206285Y-52716857D01*
X170206285Y-52288285D01*
X170134857Y-52145428D01*
X170063428Y-52074000D01*
X169920571Y-52002571D01*
X169634857Y-52002571D01*
X169492000Y-52074000D01*
X168849142Y-53002571D02*
X168849142Y-51502571D01*
X168206285Y-53002571D02*
X168206285Y-52216857D01*
X168277714Y-52074000D01*
X168420571Y-52002571D01*
X168634857Y-52002571D01*
X168777714Y-52074000D01*
X168849142Y-52145428D01*
X167492000Y-53002571D02*
X167492000Y-52002571D01*
X167492000Y-51502571D02*
X167563428Y-51574000D01*
X167492000Y-51645428D01*
X167420571Y-51574000D01*
X167492000Y-51502571D01*
X167492000Y-51645428D01*
X166206285Y-52931142D02*
X166349142Y-53002571D01*
X166634857Y-53002571D01*
X166777714Y-52931142D01*
X166849142Y-52788285D01*
X166849142Y-52216857D01*
X166777714Y-52074000D01*
X166634857Y-52002571D01*
X166349142Y-52002571D01*
X166206285Y-52074000D01*
X166134857Y-52216857D01*
X166134857Y-52359714D01*
X166849142Y-52502571D01*
X165634857Y-52002571D02*
X164849142Y-52002571D01*
X165634857Y-53002571D01*
X164849142Y-53002571D01*
X164277714Y-53002571D02*
X164277714Y-51502571D01*
X163920571Y-51502571D01*
X163706285Y-51574000D01*
X163563428Y-51716857D01*
X163492000Y-51859714D01*
X163420571Y-52145428D01*
X163420571Y-52359714D01*
X163492000Y-52645428D01*
X163563428Y-52788285D01*
X163706285Y-52931142D01*
X163920571Y-53002571D01*
X164277714Y-53002571D01*
X162777714Y-53002571D02*
X162777714Y-51502571D01*
X161777714Y-52288285D02*
X161777714Y-53002571D01*
X162277714Y-51502571D02*
X161777714Y-52288285D01*
X161277714Y-51502571D01*
X159706285Y-52931142D02*
X159492000Y-53002571D01*
X159134857Y-53002571D01*
X158992000Y-52931142D01*
X158920571Y-52859714D01*
X158849142Y-52716857D01*
X158849142Y-52574000D01*
X158920571Y-52431142D01*
X158992000Y-52359714D01*
X159134857Y-52288285D01*
X159420571Y-52216857D01*
X159563428Y-52145428D01*
X159634857Y-52074000D01*
X159706285Y-51931142D01*
X159706285Y-51788285D01*
X159634857Y-51645428D01*
X159563428Y-51574000D01*
X159420571Y-51502571D01*
X159063428Y-51502571D01*
X158849142Y-51574000D01*
X157634857Y-52931142D02*
X157777714Y-53002571D01*
X158063428Y-53002571D01*
X158206285Y-52931142D01*
X158277714Y-52788285D01*
X158277714Y-52216857D01*
X158206285Y-52074000D01*
X158063428Y-52002571D01*
X157777714Y-52002571D01*
X157634857Y-52074000D01*
X157563428Y-52216857D01*
X157563428Y-52359714D01*
X158277714Y-52502571D01*
X156920571Y-53002571D02*
X156920571Y-52002571D01*
X156920571Y-52288285D02*
X156849142Y-52145428D01*
X156777714Y-52074000D01*
X156634857Y-52002571D01*
X156492000Y-52002571D01*
X155992000Y-53002571D02*
X155992000Y-52002571D01*
X155992000Y-51502571D02*
X156063428Y-51574000D01*
X155992000Y-51645428D01*
X155920571Y-51574000D01*
X155992000Y-51502571D01*
X155992000Y-51645428D01*
X154634857Y-53002571D02*
X154634857Y-52216857D01*
X154706285Y-52074000D01*
X154849142Y-52002571D01*
X155134857Y-52002571D01*
X155277714Y-52074000D01*
X154634857Y-52931142D02*
X154777714Y-53002571D01*
X155134857Y-53002571D01*
X155277714Y-52931142D01*
X155349142Y-52788285D01*
X155349142Y-52645428D01*
X155277714Y-52502571D01*
X155134857Y-52431142D01*
X154777714Y-52431142D01*
X154634857Y-52359714D01*
X153706285Y-53002571D02*
X153849142Y-52931142D01*
X153920571Y-52788285D01*
X153920571Y-51502571D01*
X151277714Y-53002571D02*
X151992000Y-53002571D01*
X151992000Y-51502571D01*
X149920571Y-52859714D02*
X149992000Y-52931142D01*
X150206285Y-53002571D01*
X150349142Y-53002571D01*
X150563428Y-52931142D01*
X150706285Y-52788285D01*
X150777714Y-52645428D01*
X150849142Y-52359714D01*
X150849142Y-52145428D01*
X150777714Y-51859714D01*
X150706285Y-51716857D01*
X150563428Y-51574000D01*
X150349142Y-51502571D01*
X150206285Y-51502571D01*
X149992000Y-51574000D01*
X149920571Y-51645428D01*
X149277714Y-53002571D02*
X149277714Y-51502571D01*
X148920571Y-51502571D01*
X148706285Y-51574000D01*
X148563428Y-51716857D01*
X148492000Y-51859714D01*
X148420571Y-52145428D01*
X148420571Y-52359714D01*
X148492000Y-52645428D01*
X148563428Y-52788285D01*
X148706285Y-52931142D01*
X148920571Y-53002571D01*
X149277714Y-53002571D01*
X146849142Y-51502571D02*
X146349142Y-53002571D01*
X145849142Y-51502571D01*
X144563428Y-53002571D02*
X145420571Y-53002571D01*
X144992000Y-53002571D02*
X144992000Y-51502571D01*
X145134857Y-51716857D01*
X145277714Y-51859714D01*
X145420571Y-51931142D01*
X143920571Y-52859714D02*
X143849142Y-52931142D01*
X143920571Y-53002571D01*
X143992000Y-52931142D01*
X143920571Y-52859714D01*
X143920571Y-53002571D01*
X142920571Y-51502571D02*
X142777714Y-51502571D01*
X142634857Y-51574000D01*
X142563428Y-51645428D01*
X142492000Y-51788285D01*
X142420571Y-52074000D01*
X142420571Y-52431142D01*
X142492000Y-52716857D01*
X142563428Y-52859714D01*
X142634857Y-52931142D01*
X142777714Y-53002571D01*
X142920571Y-53002571D01*
X143063428Y-52931142D01*
X143134857Y-52859714D01*
X143206285Y-52716857D01*
X143277714Y-52431142D01*
X143277714Y-52074000D01*
X143206285Y-51788285D01*
X143134857Y-51645428D01*
X143063428Y-51574000D01*
X142920571Y-51502571D01*
M02*
