M48
; DRILL file {KiCad (5.1.6)-1} date 10/13/20 23:31:03
; FORMAT={-:-/ absolute / inch / decimal}
; #@! TF.CreationDate,2020-10-13T23:31:03+05:30
; #@! TF.GenerationSoftware,Kicad,Pcbnew,(5.1.6)-1
; #@! TF.FileFunction,Plated,1,2,PTH
FMAT,2
INCH
T1C0.0157
T2C0.0394
%
G90
G05
T1
X5.35Y-1.65
X5.434Y-1.852
X5.573Y-1.563
X5.6Y-1.925
X5.649Y-1.717
X5.649Y-1.803
X5.713Y-1.647
X5.713Y-1.98
X5.925Y-1.875
X6.275Y-1.8
X6.325Y-1.75
X6.388Y-1.811
X6.425Y-1.725
X6.795Y-1.82
T2
X5.2725Y-1.32
X5.3725Y-1.32
X5.4725Y-1.32
X5.5725Y-1.32
X5.6725Y-1.32
X5.7725Y-1.32
X5.8725Y-1.32
X5.9725Y-1.32
X6.0725Y-1.32
X6.1725Y-1.32
X6.2725Y-1.32
X6.3725Y-1.32
X6.4725Y-1.32
X6.5725Y-1.32
X6.6725Y-1.32
X6.7725Y-1.32
X5.1125Y-1.505
X5.1125Y-1.605
X5.1125Y-1.705
X5.1125Y-1.805
X5.1125Y-1.905
X5.1125Y-2.005
T0
M30
