G04 #@! TF.GenerationSoftware,KiCad,Pcbnew,(5.1.6)-1*
G04 #@! TF.CreationDate,2020-10-13T23:31:00+05:30*
G04 #@! TF.ProjectId,SerialShiftLCD,53657269-616c-4536-9869-66744c43442e,rev?*
G04 #@! TF.SameCoordinates,Original*
G04 #@! TF.FileFunction,Copper,L2,Bot*
G04 #@! TF.FilePolarity,Positive*
%FSLAX46Y46*%
G04 Gerber Fmt 4.6, Leading zero omitted, Abs format (unit mm)*
G04 Created by KiCad (PCBNEW (5.1.6)-1) date 2020-10-13 23:31:00*
%MOMM*%
%LPD*%
G01*
G04 APERTURE LIST*
G04 #@! TA.AperFunction,ComponentPad*
%ADD10R,1.700000X1.700000*%
G04 #@! TD*
G04 #@! TA.AperFunction,ComponentPad*
%ADD11O,1.700000X1.700000*%
G04 #@! TD*
G04 #@! TA.AperFunction,ViaPad*
%ADD12C,0.800000*%
G04 #@! TD*
G04 #@! TA.AperFunction,Conductor*
%ADD13C,0.381000*%
G04 #@! TD*
G04 #@! TA.AperFunction,Conductor*
%ADD14C,0.254000*%
G04 #@! TD*
G04 APERTURE END LIST*
D10*
X129857500Y-38227000D03*
D11*
X129857500Y-40767000D03*
X129857500Y-43307000D03*
X129857500Y-45847000D03*
X129857500Y-48387000D03*
X129857500Y-50927000D03*
D10*
X133921500Y-33528000D03*
D11*
X136461500Y-33528000D03*
X139001500Y-33528000D03*
X141541500Y-33528000D03*
X144081500Y-33528000D03*
X146621500Y-33528000D03*
X149161500Y-33528000D03*
X151701500Y-33528000D03*
X154241500Y-33528000D03*
X156781500Y-33528000D03*
X159321500Y-33528000D03*
X161861500Y-33528000D03*
X164401500Y-33528000D03*
X166941500Y-33528000D03*
X169481500Y-33528000D03*
X172021500Y-33528000D03*
D12*
X135890000Y-41910000D03*
X138023600Y-47040800D03*
X172593000Y-46228000D03*
X145110200Y-41833800D03*
X145110200Y-50292000D03*
X162255200Y-45999400D03*
X143484600Y-43611800D03*
X143484600Y-45796200D03*
X142240000Y-48895000D03*
X141554200Y-39700200D03*
X150495000Y-47625000D03*
X159385000Y-45720000D03*
X160655000Y-44450000D03*
X163195000Y-43815000D03*
D13*
X133921500Y-39941500D02*
X133921500Y-33528000D01*
X135890000Y-41910000D02*
X133921500Y-39941500D01*
D14*
X135890000Y-44907200D02*
X135890000Y-41910000D01*
X138023600Y-47040800D02*
X135890000Y-44907200D01*
X138023600Y-47606485D02*
X138049000Y-47631885D01*
X138023600Y-47040800D02*
X138023600Y-47606485D01*
X138049000Y-47631885D02*
X138049000Y-51993800D01*
X138049000Y-51993800D02*
X138709400Y-52654200D01*
X138709400Y-52654200D02*
X170789600Y-52654200D01*
X170789600Y-52654200D02*
X172593000Y-50850800D01*
X172593000Y-50850800D02*
X172593000Y-46228000D01*
D13*
X136461500Y-33528000D02*
X136461500Y-36588700D01*
X136461500Y-36588700D02*
X136931400Y-37058600D01*
X136931400Y-37058600D02*
X144678400Y-37058600D01*
X144678400Y-37058600D02*
X145110200Y-37490400D01*
X145110200Y-37490400D02*
X145110200Y-41833800D01*
D14*
X145110200Y-41833800D02*
X145110200Y-50292000D01*
X162255200Y-45999400D02*
X162255200Y-50622200D01*
X162255200Y-50622200D02*
X161315400Y-51562000D01*
X161315400Y-51562000D02*
X145440400Y-51562000D01*
X145110200Y-51231800D02*
X145110200Y-50292000D01*
X145440400Y-51562000D02*
X145110200Y-51231800D01*
X143484600Y-43611800D02*
X143484600Y-45796200D01*
X141605000Y-48260000D02*
X142240000Y-48895000D01*
D13*
X141554200Y-39700200D02*
X141554200Y-43383200D01*
D14*
X141554200Y-48209200D02*
X142240000Y-48895000D01*
X141554200Y-43383200D02*
X141554200Y-48209200D01*
X146621500Y-33528000D02*
X146621500Y-36766500D01*
X146621500Y-36766500D02*
X147955000Y-38100000D01*
X147955000Y-38100000D02*
X149860000Y-38100000D01*
X149860000Y-38100000D02*
X150495000Y-38735000D01*
X150495000Y-38735000D02*
X150495000Y-47625000D01*
X159321500Y-33528000D02*
X159321500Y-45656500D01*
X159321500Y-45656500D02*
X159385000Y-45720000D01*
X161861500Y-43243500D02*
X161861500Y-33528000D01*
X160655000Y-44450000D02*
X161861500Y-43243500D01*
X164401500Y-34730081D02*
X164465000Y-34793581D01*
X164401500Y-33528000D02*
X164401500Y-34730081D01*
X164465000Y-34793581D02*
X164465000Y-42545000D01*
X164465000Y-42545000D02*
X163195000Y-43815000D01*
G36*
X174525001Y-53240000D02*
G01*
X128370000Y-53240000D01*
X128370000Y-39082808D01*
X128381688Y-39201482D01*
X128417998Y-39321180D01*
X128476963Y-39431494D01*
X128556315Y-39528185D01*
X128653006Y-39607537D01*
X128763320Y-39666502D01*
X128835880Y-39688513D01*
X128704025Y-39820368D01*
X128541510Y-40063589D01*
X128429568Y-40333842D01*
X128372500Y-40620740D01*
X128372500Y-40913260D01*
X128429568Y-41200158D01*
X128541510Y-41470411D01*
X128704025Y-41713632D01*
X128910868Y-41920475D01*
X129085260Y-42037000D01*
X128910868Y-42153525D01*
X128704025Y-42360368D01*
X128541510Y-42603589D01*
X128429568Y-42873842D01*
X128372500Y-43160740D01*
X128372500Y-43453260D01*
X128429568Y-43740158D01*
X128541510Y-44010411D01*
X128704025Y-44253632D01*
X128910868Y-44460475D01*
X129085260Y-44577000D01*
X128910868Y-44693525D01*
X128704025Y-44900368D01*
X128541510Y-45143589D01*
X128429568Y-45413842D01*
X128372500Y-45700740D01*
X128372500Y-45993260D01*
X128429568Y-46280158D01*
X128541510Y-46550411D01*
X128704025Y-46793632D01*
X128910868Y-47000475D01*
X129085260Y-47117000D01*
X128910868Y-47233525D01*
X128704025Y-47440368D01*
X128541510Y-47683589D01*
X128429568Y-47953842D01*
X128372500Y-48240740D01*
X128372500Y-48533260D01*
X128429568Y-48820158D01*
X128541510Y-49090411D01*
X128704025Y-49333632D01*
X128910868Y-49540475D01*
X129085260Y-49657000D01*
X128910868Y-49773525D01*
X128704025Y-49980368D01*
X128541510Y-50223589D01*
X128429568Y-50493842D01*
X128372500Y-50780740D01*
X128372500Y-51073260D01*
X128429568Y-51360158D01*
X128541510Y-51630411D01*
X128704025Y-51873632D01*
X128910868Y-52080475D01*
X129154089Y-52242990D01*
X129424342Y-52354932D01*
X129711240Y-52412000D01*
X130003760Y-52412000D01*
X130290658Y-52354932D01*
X130560911Y-52242990D01*
X130804132Y-52080475D01*
X131010975Y-51873632D01*
X131173490Y-51630411D01*
X131285432Y-51360158D01*
X131342500Y-51073260D01*
X131342500Y-50780740D01*
X131285432Y-50493842D01*
X131173490Y-50223589D01*
X131010975Y-49980368D01*
X130804132Y-49773525D01*
X130629740Y-49657000D01*
X130804132Y-49540475D01*
X131010975Y-49333632D01*
X131173490Y-49090411D01*
X131285432Y-48820158D01*
X131342500Y-48533260D01*
X131342500Y-48240740D01*
X131285432Y-47953842D01*
X131173490Y-47683589D01*
X131010975Y-47440368D01*
X130804132Y-47233525D01*
X130629740Y-47117000D01*
X130804132Y-47000475D01*
X131010975Y-46793632D01*
X131173490Y-46550411D01*
X131285432Y-46280158D01*
X131342500Y-45993260D01*
X131342500Y-45700740D01*
X131285432Y-45413842D01*
X131173490Y-45143589D01*
X131010975Y-44900368D01*
X130804132Y-44693525D01*
X130629740Y-44577000D01*
X130804132Y-44460475D01*
X131010975Y-44253632D01*
X131173490Y-44010411D01*
X131285432Y-43740158D01*
X131342500Y-43453260D01*
X131342500Y-43160740D01*
X131285432Y-42873842D01*
X131173490Y-42603589D01*
X131010975Y-42360368D01*
X130804132Y-42153525D01*
X130629740Y-42037000D01*
X130804132Y-41920475D01*
X131010975Y-41713632D01*
X131173490Y-41470411D01*
X131285432Y-41200158D01*
X131342500Y-40913260D01*
X131342500Y-40620740D01*
X131285432Y-40333842D01*
X131173490Y-40063589D01*
X131010975Y-39820368D01*
X130879120Y-39688513D01*
X130951680Y-39666502D01*
X131061994Y-39607537D01*
X131073296Y-39598261D01*
X140519200Y-39598261D01*
X140519200Y-39802139D01*
X140558974Y-40002098D01*
X140636995Y-40190456D01*
X140728700Y-40327703D01*
X140728701Y-43423753D01*
X140740645Y-43545026D01*
X140787848Y-43700634D01*
X140792200Y-43708776D01*
X140792201Y-48171767D01*
X140788514Y-48209200D01*
X140803227Y-48358578D01*
X140846799Y-48502215D01*
X140917555Y-48634592D01*
X140959246Y-48685392D01*
X141012779Y-48750622D01*
X141041849Y-48774479D01*
X141205000Y-48937630D01*
X141205000Y-48996939D01*
X141244774Y-49196898D01*
X141322795Y-49385256D01*
X141436063Y-49554774D01*
X141580226Y-49698937D01*
X141749744Y-49812205D01*
X141938102Y-49890226D01*
X142138061Y-49930000D01*
X142341939Y-49930000D01*
X142541898Y-49890226D01*
X142730256Y-49812205D01*
X142899774Y-49698937D01*
X143043937Y-49554774D01*
X143157205Y-49385256D01*
X143235226Y-49196898D01*
X143275000Y-48996939D01*
X143275000Y-48793061D01*
X143235226Y-48593102D01*
X143157205Y-48404744D01*
X143043937Y-48235226D01*
X142899774Y-48091063D01*
X142730256Y-47977795D01*
X142541898Y-47899774D01*
X142341939Y-47860000D01*
X142316200Y-47860000D01*
X142316200Y-43708778D01*
X142320553Y-43700634D01*
X142367756Y-43545026D01*
X142379700Y-43423753D01*
X142379700Y-40327703D01*
X142471405Y-40190456D01*
X142549426Y-40002098D01*
X142589200Y-39802139D01*
X142589200Y-39598261D01*
X142549426Y-39398302D01*
X142471405Y-39209944D01*
X142358137Y-39040426D01*
X142213974Y-38896263D01*
X142044456Y-38782995D01*
X141856098Y-38704974D01*
X141656139Y-38665200D01*
X141452261Y-38665200D01*
X141252302Y-38704974D01*
X141063944Y-38782995D01*
X140894426Y-38896263D01*
X140750263Y-39040426D01*
X140636995Y-39209944D01*
X140558974Y-39398302D01*
X140519200Y-39598261D01*
X131073296Y-39598261D01*
X131158685Y-39528185D01*
X131238037Y-39431494D01*
X131297002Y-39321180D01*
X131333312Y-39201482D01*
X131345572Y-39077000D01*
X131342500Y-38512750D01*
X131183750Y-38354000D01*
X129984500Y-38354000D01*
X129984500Y-38374000D01*
X129730500Y-38374000D01*
X129730500Y-38354000D01*
X128531250Y-38354000D01*
X128372500Y-38512750D01*
X128370000Y-38971938D01*
X128370000Y-37482062D01*
X128372500Y-37941250D01*
X128531250Y-38100000D01*
X129730500Y-38100000D01*
X129730500Y-36900750D01*
X129984500Y-36900750D01*
X129984500Y-38100000D01*
X131183750Y-38100000D01*
X131342500Y-37941250D01*
X131345572Y-37377000D01*
X131333312Y-37252518D01*
X131297002Y-37132820D01*
X131238037Y-37022506D01*
X131158685Y-36925815D01*
X131061994Y-36846463D01*
X130951680Y-36787498D01*
X130831982Y-36751188D01*
X130707500Y-36738928D01*
X130143250Y-36742000D01*
X129984500Y-36900750D01*
X129730500Y-36900750D01*
X129571750Y-36742000D01*
X129007500Y-36738928D01*
X128883018Y-36751188D01*
X128763320Y-36787498D01*
X128653006Y-36846463D01*
X128556315Y-36925815D01*
X128476963Y-37022506D01*
X128417998Y-37132820D01*
X128381688Y-37252518D01*
X128370000Y-37371192D01*
X128370000Y-34378000D01*
X132433428Y-34378000D01*
X132445688Y-34502482D01*
X132481998Y-34622180D01*
X132540963Y-34732494D01*
X132620315Y-34829185D01*
X132717006Y-34908537D01*
X132827320Y-34967502D01*
X132947018Y-35003812D01*
X133071500Y-35016072D01*
X133635750Y-35013000D01*
X133794500Y-34854250D01*
X133794500Y-33655000D01*
X132595250Y-33655000D01*
X132436500Y-33813750D01*
X132433428Y-34378000D01*
X128370000Y-34378000D01*
X128370000Y-32678000D01*
X132433428Y-32678000D01*
X132436500Y-33242250D01*
X132595250Y-33401000D01*
X133794500Y-33401000D01*
X133794500Y-32201750D01*
X134048500Y-32201750D01*
X134048500Y-33401000D01*
X134068500Y-33401000D01*
X134068500Y-33655000D01*
X134048500Y-33655000D01*
X134048500Y-34854250D01*
X134207250Y-35013000D01*
X134771500Y-35016072D01*
X134895982Y-35003812D01*
X135015680Y-34967502D01*
X135125994Y-34908537D01*
X135222685Y-34829185D01*
X135302037Y-34732494D01*
X135361002Y-34622180D01*
X135383013Y-34549620D01*
X135514868Y-34681475D01*
X135636000Y-34762413D01*
X135636001Y-36548140D01*
X135632006Y-36588700D01*
X135647945Y-36750526D01*
X135695147Y-36906133D01*
X135771801Y-37049542D01*
X135833363Y-37124554D01*
X135874960Y-37175241D01*
X135906461Y-37201093D01*
X136319002Y-37613634D01*
X136344859Y-37645141D01*
X136433327Y-37717745D01*
X136470557Y-37748299D01*
X136581937Y-37807833D01*
X136613966Y-37824953D01*
X136769574Y-37872156D01*
X136890847Y-37884100D01*
X136890849Y-37884100D01*
X136931400Y-37888094D01*
X136971950Y-37884100D01*
X144284700Y-37884100D01*
X144284701Y-41206296D01*
X144192995Y-41343544D01*
X144114974Y-41531902D01*
X144075200Y-41731861D01*
X144075200Y-41935739D01*
X144114974Y-42135698D01*
X144192995Y-42324056D01*
X144306263Y-42493574D01*
X144348200Y-42535511D01*
X144348200Y-43041318D01*
X144288537Y-42952026D01*
X144144374Y-42807863D01*
X143974856Y-42694595D01*
X143786498Y-42616574D01*
X143586539Y-42576800D01*
X143382661Y-42576800D01*
X143182702Y-42616574D01*
X142994344Y-42694595D01*
X142824826Y-42807863D01*
X142680663Y-42952026D01*
X142567395Y-43121544D01*
X142489374Y-43309902D01*
X142449600Y-43509861D01*
X142449600Y-43713739D01*
X142489374Y-43913698D01*
X142567395Y-44102056D01*
X142680663Y-44271574D01*
X142722600Y-44313511D01*
X142722601Y-45094488D01*
X142680663Y-45136426D01*
X142567395Y-45305944D01*
X142489374Y-45494302D01*
X142449600Y-45694261D01*
X142449600Y-45898139D01*
X142489374Y-46098098D01*
X142567395Y-46286456D01*
X142680663Y-46455974D01*
X142824826Y-46600137D01*
X142994344Y-46713405D01*
X143182702Y-46791426D01*
X143382661Y-46831200D01*
X143586539Y-46831200D01*
X143786498Y-46791426D01*
X143974856Y-46713405D01*
X144144374Y-46600137D01*
X144288537Y-46455974D01*
X144348201Y-46366681D01*
X144348201Y-49590288D01*
X144306263Y-49632226D01*
X144192995Y-49801744D01*
X144114974Y-49990102D01*
X144075200Y-50190061D01*
X144075200Y-50393939D01*
X144114974Y-50593898D01*
X144192995Y-50782256D01*
X144306263Y-50951774D01*
X144348200Y-50993711D01*
X144348200Y-51194376D01*
X144344514Y-51231800D01*
X144348200Y-51269223D01*
X144348200Y-51269225D01*
X144359226Y-51381177D01*
X144402798Y-51524814D01*
X144435735Y-51586435D01*
X144473555Y-51657192D01*
X144513183Y-51705478D01*
X144568778Y-51773222D01*
X144597854Y-51797084D01*
X144875116Y-52074346D01*
X144898978Y-52103422D01*
X145015008Y-52198645D01*
X145147385Y-52269402D01*
X145291022Y-52312974D01*
X145402974Y-52324000D01*
X145402976Y-52324000D01*
X145440399Y-52327686D01*
X145477822Y-52324000D01*
X161277977Y-52324000D01*
X161315400Y-52327686D01*
X161352823Y-52324000D01*
X161352826Y-52324000D01*
X161464778Y-52312974D01*
X161608415Y-52269402D01*
X161740792Y-52198645D01*
X161856822Y-52103422D01*
X161880684Y-52074346D01*
X162767551Y-51187479D01*
X162796622Y-51163622D01*
X162823972Y-51130296D01*
X162891845Y-51047593D01*
X162943061Y-50951774D01*
X162962602Y-50915215D01*
X163006174Y-50771578D01*
X163017200Y-50659626D01*
X163017200Y-50659623D01*
X163020886Y-50622200D01*
X163017200Y-50584777D01*
X163017200Y-46701111D01*
X163059137Y-46659174D01*
X163172405Y-46489656D01*
X163250426Y-46301298D01*
X163290200Y-46101339D01*
X163290200Y-45897461D01*
X163250426Y-45697502D01*
X163172405Y-45509144D01*
X163059137Y-45339626D01*
X162914974Y-45195463D01*
X162745456Y-45082195D01*
X162557098Y-45004174D01*
X162357139Y-44964400D01*
X162153261Y-44964400D01*
X161953302Y-45004174D01*
X161764944Y-45082195D01*
X161595426Y-45195463D01*
X161451263Y-45339626D01*
X161337995Y-45509144D01*
X161259974Y-45697502D01*
X161220200Y-45897461D01*
X161220200Y-46101339D01*
X161259974Y-46301298D01*
X161337995Y-46489656D01*
X161451263Y-46659174D01*
X161493200Y-46701111D01*
X161493201Y-50306568D01*
X160999770Y-50800000D01*
X146015549Y-50800000D01*
X146027405Y-50782256D01*
X146105426Y-50593898D01*
X146145200Y-50393939D01*
X146145200Y-50190061D01*
X146105426Y-49990102D01*
X146027405Y-49801744D01*
X145914137Y-49632226D01*
X145872200Y-49590289D01*
X145872200Y-42535511D01*
X145914137Y-42493574D01*
X146027405Y-42324056D01*
X146105426Y-42135698D01*
X146145200Y-41935739D01*
X146145200Y-41731861D01*
X146105426Y-41531902D01*
X146027405Y-41343544D01*
X145935700Y-41206297D01*
X145935700Y-37530942D01*
X145939693Y-37490399D01*
X145935700Y-37449856D01*
X145935700Y-37449847D01*
X145923756Y-37328574D01*
X145876553Y-37172966D01*
X145799899Y-37029558D01*
X145696741Y-36903859D01*
X145665235Y-36878003D01*
X145290798Y-36503566D01*
X145264941Y-36472059D01*
X145139242Y-36368901D01*
X144995834Y-36292247D01*
X144840226Y-36245044D01*
X144718953Y-36233100D01*
X144718950Y-36233100D01*
X144678400Y-36229106D01*
X144637850Y-36233100D01*
X137287000Y-36233100D01*
X137287000Y-34762413D01*
X137408132Y-34681475D01*
X137614975Y-34474632D01*
X137731500Y-34300240D01*
X137848025Y-34474632D01*
X138054868Y-34681475D01*
X138298089Y-34843990D01*
X138568342Y-34955932D01*
X138855240Y-35013000D01*
X139147760Y-35013000D01*
X139434658Y-34955932D01*
X139704911Y-34843990D01*
X139948132Y-34681475D01*
X140154975Y-34474632D01*
X140271500Y-34300240D01*
X140388025Y-34474632D01*
X140594868Y-34681475D01*
X140838089Y-34843990D01*
X141108342Y-34955932D01*
X141395240Y-35013000D01*
X141687760Y-35013000D01*
X141974658Y-34955932D01*
X142244911Y-34843990D01*
X142488132Y-34681475D01*
X142694975Y-34474632D01*
X142816695Y-34292466D01*
X142886322Y-34409355D01*
X143081231Y-34625588D01*
X143314580Y-34799641D01*
X143577401Y-34924825D01*
X143724610Y-34969476D01*
X143954500Y-34848155D01*
X143954500Y-33655000D01*
X143934500Y-33655000D01*
X143934500Y-33401000D01*
X143954500Y-33401000D01*
X143954500Y-32207845D01*
X144208500Y-32207845D01*
X144208500Y-33401000D01*
X144228500Y-33401000D01*
X144228500Y-33655000D01*
X144208500Y-33655000D01*
X144208500Y-34848155D01*
X144438390Y-34969476D01*
X144585599Y-34924825D01*
X144848420Y-34799641D01*
X145081769Y-34625588D01*
X145276678Y-34409355D01*
X145346305Y-34292466D01*
X145468025Y-34474632D01*
X145674868Y-34681475D01*
X145859500Y-34804842D01*
X145859501Y-36729067D01*
X145855814Y-36766500D01*
X145870527Y-36915878D01*
X145914099Y-37059515D01*
X145984855Y-37191892D01*
X146034610Y-37252518D01*
X146080079Y-37307922D01*
X146109149Y-37331779D01*
X147389720Y-38612351D01*
X147413578Y-38641422D01*
X147442648Y-38665279D01*
X147529607Y-38736645D01*
X147600364Y-38774465D01*
X147661985Y-38807402D01*
X147805622Y-38850974D01*
X147917574Y-38862000D01*
X147917577Y-38862000D01*
X147955000Y-38865686D01*
X147992423Y-38862000D01*
X149544370Y-38862000D01*
X149733000Y-39050630D01*
X149733001Y-46923288D01*
X149691063Y-46965226D01*
X149577795Y-47134744D01*
X149499774Y-47323102D01*
X149460000Y-47523061D01*
X149460000Y-47726939D01*
X149499774Y-47926898D01*
X149577795Y-48115256D01*
X149691063Y-48284774D01*
X149835226Y-48428937D01*
X150004744Y-48542205D01*
X150193102Y-48620226D01*
X150393061Y-48660000D01*
X150596939Y-48660000D01*
X150796898Y-48620226D01*
X150985256Y-48542205D01*
X151154774Y-48428937D01*
X151298937Y-48284774D01*
X151412205Y-48115256D01*
X151490226Y-47926898D01*
X151530000Y-47726939D01*
X151530000Y-47523061D01*
X151490226Y-47323102D01*
X151412205Y-47134744D01*
X151298937Y-46965226D01*
X151257000Y-46923289D01*
X151257000Y-38772423D01*
X151260686Y-38735000D01*
X151253819Y-38665279D01*
X151245974Y-38585622D01*
X151202402Y-38441985D01*
X151155373Y-38354000D01*
X151131645Y-38309607D01*
X151088267Y-38256752D01*
X151036422Y-38193578D01*
X151007347Y-38169717D01*
X150425284Y-37587654D01*
X150401422Y-37558578D01*
X150285392Y-37463355D01*
X150153015Y-37392598D01*
X150009378Y-37349026D01*
X149897426Y-37338000D01*
X149897423Y-37338000D01*
X149860000Y-37334314D01*
X149822577Y-37338000D01*
X148270631Y-37338000D01*
X147383500Y-36450870D01*
X147383500Y-34804842D01*
X147568132Y-34681475D01*
X147774975Y-34474632D01*
X147891500Y-34300240D01*
X148008025Y-34474632D01*
X148214868Y-34681475D01*
X148458089Y-34843990D01*
X148728342Y-34955932D01*
X149015240Y-35013000D01*
X149307760Y-35013000D01*
X149594658Y-34955932D01*
X149864911Y-34843990D01*
X150108132Y-34681475D01*
X150314975Y-34474632D01*
X150431500Y-34300240D01*
X150548025Y-34474632D01*
X150754868Y-34681475D01*
X150998089Y-34843990D01*
X151268342Y-34955932D01*
X151555240Y-35013000D01*
X151847760Y-35013000D01*
X152134658Y-34955932D01*
X152404911Y-34843990D01*
X152648132Y-34681475D01*
X152854975Y-34474632D01*
X152971500Y-34300240D01*
X153088025Y-34474632D01*
X153294868Y-34681475D01*
X153538089Y-34843990D01*
X153808342Y-34955932D01*
X154095240Y-35013000D01*
X154387760Y-35013000D01*
X154674658Y-34955932D01*
X154944911Y-34843990D01*
X155188132Y-34681475D01*
X155394975Y-34474632D01*
X155511500Y-34300240D01*
X155628025Y-34474632D01*
X155834868Y-34681475D01*
X156078089Y-34843990D01*
X156348342Y-34955932D01*
X156635240Y-35013000D01*
X156927760Y-35013000D01*
X157214658Y-34955932D01*
X157484911Y-34843990D01*
X157728132Y-34681475D01*
X157934975Y-34474632D01*
X158051500Y-34300240D01*
X158168025Y-34474632D01*
X158374868Y-34681475D01*
X158559500Y-34804842D01*
X158559501Y-45092496D01*
X158467795Y-45229744D01*
X158389774Y-45418102D01*
X158350000Y-45618061D01*
X158350000Y-45821939D01*
X158389774Y-46021898D01*
X158467795Y-46210256D01*
X158581063Y-46379774D01*
X158725226Y-46523937D01*
X158894744Y-46637205D01*
X159083102Y-46715226D01*
X159283061Y-46755000D01*
X159486939Y-46755000D01*
X159686898Y-46715226D01*
X159875256Y-46637205D01*
X160044774Y-46523937D01*
X160188937Y-46379774D01*
X160302205Y-46210256D01*
X160380226Y-46021898D01*
X160420000Y-45821939D01*
X160420000Y-45618061D01*
X160386961Y-45451961D01*
X160553061Y-45485000D01*
X160756939Y-45485000D01*
X160956898Y-45445226D01*
X161145256Y-45367205D01*
X161314774Y-45253937D01*
X161458937Y-45109774D01*
X161572205Y-44940256D01*
X161650226Y-44751898D01*
X161690000Y-44551939D01*
X161690000Y-44492630D01*
X162177535Y-44005095D01*
X162199774Y-44116898D01*
X162277795Y-44305256D01*
X162391063Y-44474774D01*
X162535226Y-44618937D01*
X162704744Y-44732205D01*
X162893102Y-44810226D01*
X163093061Y-44850000D01*
X163296939Y-44850000D01*
X163496898Y-44810226D01*
X163685256Y-44732205D01*
X163854774Y-44618937D01*
X163998937Y-44474774D01*
X164112205Y-44305256D01*
X164190226Y-44116898D01*
X164230000Y-43916939D01*
X164230000Y-43857630D01*
X164977352Y-43110279D01*
X165006422Y-43086422D01*
X165101645Y-42970392D01*
X165172402Y-42838015D01*
X165215974Y-42694378D01*
X165227000Y-42582426D01*
X165227000Y-42582424D01*
X165230686Y-42545001D01*
X165227000Y-42507578D01*
X165227000Y-34831004D01*
X165230686Y-34793581D01*
X165227578Y-34762027D01*
X165348132Y-34681475D01*
X165554975Y-34474632D01*
X165671500Y-34300240D01*
X165788025Y-34474632D01*
X165994868Y-34681475D01*
X166238089Y-34843990D01*
X166508342Y-34955932D01*
X166795240Y-35013000D01*
X167087760Y-35013000D01*
X167374658Y-34955932D01*
X167644911Y-34843990D01*
X167888132Y-34681475D01*
X168094975Y-34474632D01*
X168211500Y-34300240D01*
X168328025Y-34474632D01*
X168534868Y-34681475D01*
X168778089Y-34843990D01*
X169048342Y-34955932D01*
X169335240Y-35013000D01*
X169627760Y-35013000D01*
X169914658Y-34955932D01*
X170184911Y-34843990D01*
X170428132Y-34681475D01*
X170634975Y-34474632D01*
X170751500Y-34300240D01*
X170868025Y-34474632D01*
X171074868Y-34681475D01*
X171318089Y-34843990D01*
X171588342Y-34955932D01*
X171875240Y-35013000D01*
X172167760Y-35013000D01*
X172454658Y-34955932D01*
X172724911Y-34843990D01*
X172968132Y-34681475D01*
X173174975Y-34474632D01*
X173337490Y-34231411D01*
X173449432Y-33961158D01*
X173506500Y-33674260D01*
X173506500Y-33381740D01*
X173449432Y-33094842D01*
X173337490Y-32824589D01*
X173174975Y-32581368D01*
X172968132Y-32374525D01*
X172724911Y-32212010D01*
X172454658Y-32100068D01*
X172167760Y-32043000D01*
X171875240Y-32043000D01*
X171588342Y-32100068D01*
X171318089Y-32212010D01*
X171074868Y-32374525D01*
X170868025Y-32581368D01*
X170751500Y-32755760D01*
X170634975Y-32581368D01*
X170428132Y-32374525D01*
X170184911Y-32212010D01*
X169914658Y-32100068D01*
X169627760Y-32043000D01*
X169335240Y-32043000D01*
X169048342Y-32100068D01*
X168778089Y-32212010D01*
X168534868Y-32374525D01*
X168328025Y-32581368D01*
X168211500Y-32755760D01*
X168094975Y-32581368D01*
X167888132Y-32374525D01*
X167644911Y-32212010D01*
X167374658Y-32100068D01*
X167087760Y-32043000D01*
X166795240Y-32043000D01*
X166508342Y-32100068D01*
X166238089Y-32212010D01*
X165994868Y-32374525D01*
X165788025Y-32581368D01*
X165671500Y-32755760D01*
X165554975Y-32581368D01*
X165348132Y-32374525D01*
X165104911Y-32212010D01*
X164834658Y-32100068D01*
X164547760Y-32043000D01*
X164255240Y-32043000D01*
X163968342Y-32100068D01*
X163698089Y-32212010D01*
X163454868Y-32374525D01*
X163248025Y-32581368D01*
X163131500Y-32755760D01*
X163014975Y-32581368D01*
X162808132Y-32374525D01*
X162564911Y-32212010D01*
X162294658Y-32100068D01*
X162007760Y-32043000D01*
X161715240Y-32043000D01*
X161428342Y-32100068D01*
X161158089Y-32212010D01*
X160914868Y-32374525D01*
X160708025Y-32581368D01*
X160591500Y-32755760D01*
X160474975Y-32581368D01*
X160268132Y-32374525D01*
X160024911Y-32212010D01*
X159754658Y-32100068D01*
X159467760Y-32043000D01*
X159175240Y-32043000D01*
X158888342Y-32100068D01*
X158618089Y-32212010D01*
X158374868Y-32374525D01*
X158168025Y-32581368D01*
X158051500Y-32755760D01*
X157934975Y-32581368D01*
X157728132Y-32374525D01*
X157484911Y-32212010D01*
X157214658Y-32100068D01*
X156927760Y-32043000D01*
X156635240Y-32043000D01*
X156348342Y-32100068D01*
X156078089Y-32212010D01*
X155834868Y-32374525D01*
X155628025Y-32581368D01*
X155511500Y-32755760D01*
X155394975Y-32581368D01*
X155188132Y-32374525D01*
X154944911Y-32212010D01*
X154674658Y-32100068D01*
X154387760Y-32043000D01*
X154095240Y-32043000D01*
X153808342Y-32100068D01*
X153538089Y-32212010D01*
X153294868Y-32374525D01*
X153088025Y-32581368D01*
X152971500Y-32755760D01*
X152854975Y-32581368D01*
X152648132Y-32374525D01*
X152404911Y-32212010D01*
X152134658Y-32100068D01*
X151847760Y-32043000D01*
X151555240Y-32043000D01*
X151268342Y-32100068D01*
X150998089Y-32212010D01*
X150754868Y-32374525D01*
X150548025Y-32581368D01*
X150431500Y-32755760D01*
X150314975Y-32581368D01*
X150108132Y-32374525D01*
X149864911Y-32212010D01*
X149594658Y-32100068D01*
X149307760Y-32043000D01*
X149015240Y-32043000D01*
X148728342Y-32100068D01*
X148458089Y-32212010D01*
X148214868Y-32374525D01*
X148008025Y-32581368D01*
X147891500Y-32755760D01*
X147774975Y-32581368D01*
X147568132Y-32374525D01*
X147324911Y-32212010D01*
X147054658Y-32100068D01*
X146767760Y-32043000D01*
X146475240Y-32043000D01*
X146188342Y-32100068D01*
X145918089Y-32212010D01*
X145674868Y-32374525D01*
X145468025Y-32581368D01*
X145346305Y-32763534D01*
X145276678Y-32646645D01*
X145081769Y-32430412D01*
X144848420Y-32256359D01*
X144585599Y-32131175D01*
X144438390Y-32086524D01*
X144208500Y-32207845D01*
X143954500Y-32207845D01*
X143724610Y-32086524D01*
X143577401Y-32131175D01*
X143314580Y-32256359D01*
X143081231Y-32430412D01*
X142886322Y-32646645D01*
X142816695Y-32763534D01*
X142694975Y-32581368D01*
X142488132Y-32374525D01*
X142244911Y-32212010D01*
X141974658Y-32100068D01*
X141687760Y-32043000D01*
X141395240Y-32043000D01*
X141108342Y-32100068D01*
X140838089Y-32212010D01*
X140594868Y-32374525D01*
X140388025Y-32581368D01*
X140271500Y-32755760D01*
X140154975Y-32581368D01*
X139948132Y-32374525D01*
X139704911Y-32212010D01*
X139434658Y-32100068D01*
X139147760Y-32043000D01*
X138855240Y-32043000D01*
X138568342Y-32100068D01*
X138298089Y-32212010D01*
X138054868Y-32374525D01*
X137848025Y-32581368D01*
X137731500Y-32755760D01*
X137614975Y-32581368D01*
X137408132Y-32374525D01*
X137164911Y-32212010D01*
X136894658Y-32100068D01*
X136607760Y-32043000D01*
X136315240Y-32043000D01*
X136028342Y-32100068D01*
X135758089Y-32212010D01*
X135514868Y-32374525D01*
X135383013Y-32506380D01*
X135361002Y-32433820D01*
X135302037Y-32323506D01*
X135222685Y-32226815D01*
X135125994Y-32147463D01*
X135015680Y-32088498D01*
X134895982Y-32052188D01*
X134771500Y-32039928D01*
X134207250Y-32043000D01*
X134048500Y-32201750D01*
X133794500Y-32201750D01*
X133635750Y-32043000D01*
X133071500Y-32039928D01*
X132947018Y-32052188D01*
X132827320Y-32088498D01*
X132717006Y-32147463D01*
X132620315Y-32226815D01*
X132540963Y-32323506D01*
X132481998Y-32433820D01*
X132445688Y-32553518D01*
X132433428Y-32678000D01*
X128370000Y-32678000D01*
X128370000Y-31850000D01*
X174525000Y-31850000D01*
X174525001Y-53240000D01*
G37*
X174525001Y-53240000D02*
X128370000Y-53240000D01*
X128370000Y-39082808D01*
X128381688Y-39201482D01*
X128417998Y-39321180D01*
X128476963Y-39431494D01*
X128556315Y-39528185D01*
X128653006Y-39607537D01*
X128763320Y-39666502D01*
X128835880Y-39688513D01*
X128704025Y-39820368D01*
X128541510Y-40063589D01*
X128429568Y-40333842D01*
X128372500Y-40620740D01*
X128372500Y-40913260D01*
X128429568Y-41200158D01*
X128541510Y-41470411D01*
X128704025Y-41713632D01*
X128910868Y-41920475D01*
X129085260Y-42037000D01*
X128910868Y-42153525D01*
X128704025Y-42360368D01*
X128541510Y-42603589D01*
X128429568Y-42873842D01*
X128372500Y-43160740D01*
X128372500Y-43453260D01*
X128429568Y-43740158D01*
X128541510Y-44010411D01*
X128704025Y-44253632D01*
X128910868Y-44460475D01*
X129085260Y-44577000D01*
X128910868Y-44693525D01*
X128704025Y-44900368D01*
X128541510Y-45143589D01*
X128429568Y-45413842D01*
X128372500Y-45700740D01*
X128372500Y-45993260D01*
X128429568Y-46280158D01*
X128541510Y-46550411D01*
X128704025Y-46793632D01*
X128910868Y-47000475D01*
X129085260Y-47117000D01*
X128910868Y-47233525D01*
X128704025Y-47440368D01*
X128541510Y-47683589D01*
X128429568Y-47953842D01*
X128372500Y-48240740D01*
X128372500Y-48533260D01*
X128429568Y-48820158D01*
X128541510Y-49090411D01*
X128704025Y-49333632D01*
X128910868Y-49540475D01*
X129085260Y-49657000D01*
X128910868Y-49773525D01*
X128704025Y-49980368D01*
X128541510Y-50223589D01*
X128429568Y-50493842D01*
X128372500Y-50780740D01*
X128372500Y-51073260D01*
X128429568Y-51360158D01*
X128541510Y-51630411D01*
X128704025Y-51873632D01*
X128910868Y-52080475D01*
X129154089Y-52242990D01*
X129424342Y-52354932D01*
X129711240Y-52412000D01*
X130003760Y-52412000D01*
X130290658Y-52354932D01*
X130560911Y-52242990D01*
X130804132Y-52080475D01*
X131010975Y-51873632D01*
X131173490Y-51630411D01*
X131285432Y-51360158D01*
X131342500Y-51073260D01*
X131342500Y-50780740D01*
X131285432Y-50493842D01*
X131173490Y-50223589D01*
X131010975Y-49980368D01*
X130804132Y-49773525D01*
X130629740Y-49657000D01*
X130804132Y-49540475D01*
X131010975Y-49333632D01*
X131173490Y-49090411D01*
X131285432Y-48820158D01*
X131342500Y-48533260D01*
X131342500Y-48240740D01*
X131285432Y-47953842D01*
X131173490Y-47683589D01*
X131010975Y-47440368D01*
X130804132Y-47233525D01*
X130629740Y-47117000D01*
X130804132Y-47000475D01*
X131010975Y-46793632D01*
X131173490Y-46550411D01*
X131285432Y-46280158D01*
X131342500Y-45993260D01*
X131342500Y-45700740D01*
X131285432Y-45413842D01*
X131173490Y-45143589D01*
X131010975Y-44900368D01*
X130804132Y-44693525D01*
X130629740Y-44577000D01*
X130804132Y-44460475D01*
X131010975Y-44253632D01*
X131173490Y-44010411D01*
X131285432Y-43740158D01*
X131342500Y-43453260D01*
X131342500Y-43160740D01*
X131285432Y-42873842D01*
X131173490Y-42603589D01*
X131010975Y-42360368D01*
X130804132Y-42153525D01*
X130629740Y-42037000D01*
X130804132Y-41920475D01*
X131010975Y-41713632D01*
X131173490Y-41470411D01*
X131285432Y-41200158D01*
X131342500Y-40913260D01*
X131342500Y-40620740D01*
X131285432Y-40333842D01*
X131173490Y-40063589D01*
X131010975Y-39820368D01*
X130879120Y-39688513D01*
X130951680Y-39666502D01*
X131061994Y-39607537D01*
X131073296Y-39598261D01*
X140519200Y-39598261D01*
X140519200Y-39802139D01*
X140558974Y-40002098D01*
X140636995Y-40190456D01*
X140728700Y-40327703D01*
X140728701Y-43423753D01*
X140740645Y-43545026D01*
X140787848Y-43700634D01*
X140792200Y-43708776D01*
X140792201Y-48171767D01*
X140788514Y-48209200D01*
X140803227Y-48358578D01*
X140846799Y-48502215D01*
X140917555Y-48634592D01*
X140959246Y-48685392D01*
X141012779Y-48750622D01*
X141041849Y-48774479D01*
X141205000Y-48937630D01*
X141205000Y-48996939D01*
X141244774Y-49196898D01*
X141322795Y-49385256D01*
X141436063Y-49554774D01*
X141580226Y-49698937D01*
X141749744Y-49812205D01*
X141938102Y-49890226D01*
X142138061Y-49930000D01*
X142341939Y-49930000D01*
X142541898Y-49890226D01*
X142730256Y-49812205D01*
X142899774Y-49698937D01*
X143043937Y-49554774D01*
X143157205Y-49385256D01*
X143235226Y-49196898D01*
X143275000Y-48996939D01*
X143275000Y-48793061D01*
X143235226Y-48593102D01*
X143157205Y-48404744D01*
X143043937Y-48235226D01*
X142899774Y-48091063D01*
X142730256Y-47977795D01*
X142541898Y-47899774D01*
X142341939Y-47860000D01*
X142316200Y-47860000D01*
X142316200Y-43708778D01*
X142320553Y-43700634D01*
X142367756Y-43545026D01*
X142379700Y-43423753D01*
X142379700Y-40327703D01*
X142471405Y-40190456D01*
X142549426Y-40002098D01*
X142589200Y-39802139D01*
X142589200Y-39598261D01*
X142549426Y-39398302D01*
X142471405Y-39209944D01*
X142358137Y-39040426D01*
X142213974Y-38896263D01*
X142044456Y-38782995D01*
X141856098Y-38704974D01*
X141656139Y-38665200D01*
X141452261Y-38665200D01*
X141252302Y-38704974D01*
X141063944Y-38782995D01*
X140894426Y-38896263D01*
X140750263Y-39040426D01*
X140636995Y-39209944D01*
X140558974Y-39398302D01*
X140519200Y-39598261D01*
X131073296Y-39598261D01*
X131158685Y-39528185D01*
X131238037Y-39431494D01*
X131297002Y-39321180D01*
X131333312Y-39201482D01*
X131345572Y-39077000D01*
X131342500Y-38512750D01*
X131183750Y-38354000D01*
X129984500Y-38354000D01*
X129984500Y-38374000D01*
X129730500Y-38374000D01*
X129730500Y-38354000D01*
X128531250Y-38354000D01*
X128372500Y-38512750D01*
X128370000Y-38971938D01*
X128370000Y-37482062D01*
X128372500Y-37941250D01*
X128531250Y-38100000D01*
X129730500Y-38100000D01*
X129730500Y-36900750D01*
X129984500Y-36900750D01*
X129984500Y-38100000D01*
X131183750Y-38100000D01*
X131342500Y-37941250D01*
X131345572Y-37377000D01*
X131333312Y-37252518D01*
X131297002Y-37132820D01*
X131238037Y-37022506D01*
X131158685Y-36925815D01*
X131061994Y-36846463D01*
X130951680Y-36787498D01*
X130831982Y-36751188D01*
X130707500Y-36738928D01*
X130143250Y-36742000D01*
X129984500Y-36900750D01*
X129730500Y-36900750D01*
X129571750Y-36742000D01*
X129007500Y-36738928D01*
X128883018Y-36751188D01*
X128763320Y-36787498D01*
X128653006Y-36846463D01*
X128556315Y-36925815D01*
X128476963Y-37022506D01*
X128417998Y-37132820D01*
X128381688Y-37252518D01*
X128370000Y-37371192D01*
X128370000Y-34378000D01*
X132433428Y-34378000D01*
X132445688Y-34502482D01*
X132481998Y-34622180D01*
X132540963Y-34732494D01*
X132620315Y-34829185D01*
X132717006Y-34908537D01*
X132827320Y-34967502D01*
X132947018Y-35003812D01*
X133071500Y-35016072D01*
X133635750Y-35013000D01*
X133794500Y-34854250D01*
X133794500Y-33655000D01*
X132595250Y-33655000D01*
X132436500Y-33813750D01*
X132433428Y-34378000D01*
X128370000Y-34378000D01*
X128370000Y-32678000D01*
X132433428Y-32678000D01*
X132436500Y-33242250D01*
X132595250Y-33401000D01*
X133794500Y-33401000D01*
X133794500Y-32201750D01*
X134048500Y-32201750D01*
X134048500Y-33401000D01*
X134068500Y-33401000D01*
X134068500Y-33655000D01*
X134048500Y-33655000D01*
X134048500Y-34854250D01*
X134207250Y-35013000D01*
X134771500Y-35016072D01*
X134895982Y-35003812D01*
X135015680Y-34967502D01*
X135125994Y-34908537D01*
X135222685Y-34829185D01*
X135302037Y-34732494D01*
X135361002Y-34622180D01*
X135383013Y-34549620D01*
X135514868Y-34681475D01*
X135636000Y-34762413D01*
X135636001Y-36548140D01*
X135632006Y-36588700D01*
X135647945Y-36750526D01*
X135695147Y-36906133D01*
X135771801Y-37049542D01*
X135833363Y-37124554D01*
X135874960Y-37175241D01*
X135906461Y-37201093D01*
X136319002Y-37613634D01*
X136344859Y-37645141D01*
X136433327Y-37717745D01*
X136470557Y-37748299D01*
X136581937Y-37807833D01*
X136613966Y-37824953D01*
X136769574Y-37872156D01*
X136890847Y-37884100D01*
X136890849Y-37884100D01*
X136931400Y-37888094D01*
X136971950Y-37884100D01*
X144284700Y-37884100D01*
X144284701Y-41206296D01*
X144192995Y-41343544D01*
X144114974Y-41531902D01*
X144075200Y-41731861D01*
X144075200Y-41935739D01*
X144114974Y-42135698D01*
X144192995Y-42324056D01*
X144306263Y-42493574D01*
X144348200Y-42535511D01*
X144348200Y-43041318D01*
X144288537Y-42952026D01*
X144144374Y-42807863D01*
X143974856Y-42694595D01*
X143786498Y-42616574D01*
X143586539Y-42576800D01*
X143382661Y-42576800D01*
X143182702Y-42616574D01*
X142994344Y-42694595D01*
X142824826Y-42807863D01*
X142680663Y-42952026D01*
X142567395Y-43121544D01*
X142489374Y-43309902D01*
X142449600Y-43509861D01*
X142449600Y-43713739D01*
X142489374Y-43913698D01*
X142567395Y-44102056D01*
X142680663Y-44271574D01*
X142722600Y-44313511D01*
X142722601Y-45094488D01*
X142680663Y-45136426D01*
X142567395Y-45305944D01*
X142489374Y-45494302D01*
X142449600Y-45694261D01*
X142449600Y-45898139D01*
X142489374Y-46098098D01*
X142567395Y-46286456D01*
X142680663Y-46455974D01*
X142824826Y-46600137D01*
X142994344Y-46713405D01*
X143182702Y-46791426D01*
X143382661Y-46831200D01*
X143586539Y-46831200D01*
X143786498Y-46791426D01*
X143974856Y-46713405D01*
X144144374Y-46600137D01*
X144288537Y-46455974D01*
X144348201Y-46366681D01*
X144348201Y-49590288D01*
X144306263Y-49632226D01*
X144192995Y-49801744D01*
X144114974Y-49990102D01*
X144075200Y-50190061D01*
X144075200Y-50393939D01*
X144114974Y-50593898D01*
X144192995Y-50782256D01*
X144306263Y-50951774D01*
X144348200Y-50993711D01*
X144348200Y-51194376D01*
X144344514Y-51231800D01*
X144348200Y-51269223D01*
X144348200Y-51269225D01*
X144359226Y-51381177D01*
X144402798Y-51524814D01*
X144435735Y-51586435D01*
X144473555Y-51657192D01*
X144513183Y-51705478D01*
X144568778Y-51773222D01*
X144597854Y-51797084D01*
X144875116Y-52074346D01*
X144898978Y-52103422D01*
X145015008Y-52198645D01*
X145147385Y-52269402D01*
X145291022Y-52312974D01*
X145402974Y-52324000D01*
X145402976Y-52324000D01*
X145440399Y-52327686D01*
X145477822Y-52324000D01*
X161277977Y-52324000D01*
X161315400Y-52327686D01*
X161352823Y-52324000D01*
X161352826Y-52324000D01*
X161464778Y-52312974D01*
X161608415Y-52269402D01*
X161740792Y-52198645D01*
X161856822Y-52103422D01*
X161880684Y-52074346D01*
X162767551Y-51187479D01*
X162796622Y-51163622D01*
X162823972Y-51130296D01*
X162891845Y-51047593D01*
X162943061Y-50951774D01*
X162962602Y-50915215D01*
X163006174Y-50771578D01*
X163017200Y-50659626D01*
X163017200Y-50659623D01*
X163020886Y-50622200D01*
X163017200Y-50584777D01*
X163017200Y-46701111D01*
X163059137Y-46659174D01*
X163172405Y-46489656D01*
X163250426Y-46301298D01*
X163290200Y-46101339D01*
X163290200Y-45897461D01*
X163250426Y-45697502D01*
X163172405Y-45509144D01*
X163059137Y-45339626D01*
X162914974Y-45195463D01*
X162745456Y-45082195D01*
X162557098Y-45004174D01*
X162357139Y-44964400D01*
X162153261Y-44964400D01*
X161953302Y-45004174D01*
X161764944Y-45082195D01*
X161595426Y-45195463D01*
X161451263Y-45339626D01*
X161337995Y-45509144D01*
X161259974Y-45697502D01*
X161220200Y-45897461D01*
X161220200Y-46101339D01*
X161259974Y-46301298D01*
X161337995Y-46489656D01*
X161451263Y-46659174D01*
X161493200Y-46701111D01*
X161493201Y-50306568D01*
X160999770Y-50800000D01*
X146015549Y-50800000D01*
X146027405Y-50782256D01*
X146105426Y-50593898D01*
X146145200Y-50393939D01*
X146145200Y-50190061D01*
X146105426Y-49990102D01*
X146027405Y-49801744D01*
X145914137Y-49632226D01*
X145872200Y-49590289D01*
X145872200Y-42535511D01*
X145914137Y-42493574D01*
X146027405Y-42324056D01*
X146105426Y-42135698D01*
X146145200Y-41935739D01*
X146145200Y-41731861D01*
X146105426Y-41531902D01*
X146027405Y-41343544D01*
X145935700Y-41206297D01*
X145935700Y-37530942D01*
X145939693Y-37490399D01*
X145935700Y-37449856D01*
X145935700Y-37449847D01*
X145923756Y-37328574D01*
X145876553Y-37172966D01*
X145799899Y-37029558D01*
X145696741Y-36903859D01*
X145665235Y-36878003D01*
X145290798Y-36503566D01*
X145264941Y-36472059D01*
X145139242Y-36368901D01*
X144995834Y-36292247D01*
X144840226Y-36245044D01*
X144718953Y-36233100D01*
X144718950Y-36233100D01*
X144678400Y-36229106D01*
X144637850Y-36233100D01*
X137287000Y-36233100D01*
X137287000Y-34762413D01*
X137408132Y-34681475D01*
X137614975Y-34474632D01*
X137731500Y-34300240D01*
X137848025Y-34474632D01*
X138054868Y-34681475D01*
X138298089Y-34843990D01*
X138568342Y-34955932D01*
X138855240Y-35013000D01*
X139147760Y-35013000D01*
X139434658Y-34955932D01*
X139704911Y-34843990D01*
X139948132Y-34681475D01*
X140154975Y-34474632D01*
X140271500Y-34300240D01*
X140388025Y-34474632D01*
X140594868Y-34681475D01*
X140838089Y-34843990D01*
X141108342Y-34955932D01*
X141395240Y-35013000D01*
X141687760Y-35013000D01*
X141974658Y-34955932D01*
X142244911Y-34843990D01*
X142488132Y-34681475D01*
X142694975Y-34474632D01*
X142816695Y-34292466D01*
X142886322Y-34409355D01*
X143081231Y-34625588D01*
X143314580Y-34799641D01*
X143577401Y-34924825D01*
X143724610Y-34969476D01*
X143954500Y-34848155D01*
X143954500Y-33655000D01*
X143934500Y-33655000D01*
X143934500Y-33401000D01*
X143954500Y-33401000D01*
X143954500Y-32207845D01*
X144208500Y-32207845D01*
X144208500Y-33401000D01*
X144228500Y-33401000D01*
X144228500Y-33655000D01*
X144208500Y-33655000D01*
X144208500Y-34848155D01*
X144438390Y-34969476D01*
X144585599Y-34924825D01*
X144848420Y-34799641D01*
X145081769Y-34625588D01*
X145276678Y-34409355D01*
X145346305Y-34292466D01*
X145468025Y-34474632D01*
X145674868Y-34681475D01*
X145859500Y-34804842D01*
X145859501Y-36729067D01*
X145855814Y-36766500D01*
X145870527Y-36915878D01*
X145914099Y-37059515D01*
X145984855Y-37191892D01*
X146034610Y-37252518D01*
X146080079Y-37307922D01*
X146109149Y-37331779D01*
X147389720Y-38612351D01*
X147413578Y-38641422D01*
X147442648Y-38665279D01*
X147529607Y-38736645D01*
X147600364Y-38774465D01*
X147661985Y-38807402D01*
X147805622Y-38850974D01*
X147917574Y-38862000D01*
X147917577Y-38862000D01*
X147955000Y-38865686D01*
X147992423Y-38862000D01*
X149544370Y-38862000D01*
X149733000Y-39050630D01*
X149733001Y-46923288D01*
X149691063Y-46965226D01*
X149577795Y-47134744D01*
X149499774Y-47323102D01*
X149460000Y-47523061D01*
X149460000Y-47726939D01*
X149499774Y-47926898D01*
X149577795Y-48115256D01*
X149691063Y-48284774D01*
X149835226Y-48428937D01*
X150004744Y-48542205D01*
X150193102Y-48620226D01*
X150393061Y-48660000D01*
X150596939Y-48660000D01*
X150796898Y-48620226D01*
X150985256Y-48542205D01*
X151154774Y-48428937D01*
X151298937Y-48284774D01*
X151412205Y-48115256D01*
X151490226Y-47926898D01*
X151530000Y-47726939D01*
X151530000Y-47523061D01*
X151490226Y-47323102D01*
X151412205Y-47134744D01*
X151298937Y-46965226D01*
X151257000Y-46923289D01*
X151257000Y-38772423D01*
X151260686Y-38735000D01*
X151253819Y-38665279D01*
X151245974Y-38585622D01*
X151202402Y-38441985D01*
X151155373Y-38354000D01*
X151131645Y-38309607D01*
X151088267Y-38256752D01*
X151036422Y-38193578D01*
X151007347Y-38169717D01*
X150425284Y-37587654D01*
X150401422Y-37558578D01*
X150285392Y-37463355D01*
X150153015Y-37392598D01*
X150009378Y-37349026D01*
X149897426Y-37338000D01*
X149897423Y-37338000D01*
X149860000Y-37334314D01*
X149822577Y-37338000D01*
X148270631Y-37338000D01*
X147383500Y-36450870D01*
X147383500Y-34804842D01*
X147568132Y-34681475D01*
X147774975Y-34474632D01*
X147891500Y-34300240D01*
X148008025Y-34474632D01*
X148214868Y-34681475D01*
X148458089Y-34843990D01*
X148728342Y-34955932D01*
X149015240Y-35013000D01*
X149307760Y-35013000D01*
X149594658Y-34955932D01*
X149864911Y-34843990D01*
X150108132Y-34681475D01*
X150314975Y-34474632D01*
X150431500Y-34300240D01*
X150548025Y-34474632D01*
X150754868Y-34681475D01*
X150998089Y-34843990D01*
X151268342Y-34955932D01*
X151555240Y-35013000D01*
X151847760Y-35013000D01*
X152134658Y-34955932D01*
X152404911Y-34843990D01*
X152648132Y-34681475D01*
X152854975Y-34474632D01*
X152971500Y-34300240D01*
X153088025Y-34474632D01*
X153294868Y-34681475D01*
X153538089Y-34843990D01*
X153808342Y-34955932D01*
X154095240Y-35013000D01*
X154387760Y-35013000D01*
X154674658Y-34955932D01*
X154944911Y-34843990D01*
X155188132Y-34681475D01*
X155394975Y-34474632D01*
X155511500Y-34300240D01*
X155628025Y-34474632D01*
X155834868Y-34681475D01*
X156078089Y-34843990D01*
X156348342Y-34955932D01*
X156635240Y-35013000D01*
X156927760Y-35013000D01*
X157214658Y-34955932D01*
X157484911Y-34843990D01*
X157728132Y-34681475D01*
X157934975Y-34474632D01*
X158051500Y-34300240D01*
X158168025Y-34474632D01*
X158374868Y-34681475D01*
X158559500Y-34804842D01*
X158559501Y-45092496D01*
X158467795Y-45229744D01*
X158389774Y-45418102D01*
X158350000Y-45618061D01*
X158350000Y-45821939D01*
X158389774Y-46021898D01*
X158467795Y-46210256D01*
X158581063Y-46379774D01*
X158725226Y-46523937D01*
X158894744Y-46637205D01*
X159083102Y-46715226D01*
X159283061Y-46755000D01*
X159486939Y-46755000D01*
X159686898Y-46715226D01*
X159875256Y-46637205D01*
X160044774Y-46523937D01*
X160188937Y-46379774D01*
X160302205Y-46210256D01*
X160380226Y-46021898D01*
X160420000Y-45821939D01*
X160420000Y-45618061D01*
X160386961Y-45451961D01*
X160553061Y-45485000D01*
X160756939Y-45485000D01*
X160956898Y-45445226D01*
X161145256Y-45367205D01*
X161314774Y-45253937D01*
X161458937Y-45109774D01*
X161572205Y-44940256D01*
X161650226Y-44751898D01*
X161690000Y-44551939D01*
X161690000Y-44492630D01*
X162177535Y-44005095D01*
X162199774Y-44116898D01*
X162277795Y-44305256D01*
X162391063Y-44474774D01*
X162535226Y-44618937D01*
X162704744Y-44732205D01*
X162893102Y-44810226D01*
X163093061Y-44850000D01*
X163296939Y-44850000D01*
X163496898Y-44810226D01*
X163685256Y-44732205D01*
X163854774Y-44618937D01*
X163998937Y-44474774D01*
X164112205Y-44305256D01*
X164190226Y-44116898D01*
X164230000Y-43916939D01*
X164230000Y-43857630D01*
X164977352Y-43110279D01*
X165006422Y-43086422D01*
X165101645Y-42970392D01*
X165172402Y-42838015D01*
X165215974Y-42694378D01*
X165227000Y-42582426D01*
X165227000Y-42582424D01*
X165230686Y-42545001D01*
X165227000Y-42507578D01*
X165227000Y-34831004D01*
X165230686Y-34793581D01*
X165227578Y-34762027D01*
X165348132Y-34681475D01*
X165554975Y-34474632D01*
X165671500Y-34300240D01*
X165788025Y-34474632D01*
X165994868Y-34681475D01*
X166238089Y-34843990D01*
X166508342Y-34955932D01*
X166795240Y-35013000D01*
X167087760Y-35013000D01*
X167374658Y-34955932D01*
X167644911Y-34843990D01*
X167888132Y-34681475D01*
X168094975Y-34474632D01*
X168211500Y-34300240D01*
X168328025Y-34474632D01*
X168534868Y-34681475D01*
X168778089Y-34843990D01*
X169048342Y-34955932D01*
X169335240Y-35013000D01*
X169627760Y-35013000D01*
X169914658Y-34955932D01*
X170184911Y-34843990D01*
X170428132Y-34681475D01*
X170634975Y-34474632D01*
X170751500Y-34300240D01*
X170868025Y-34474632D01*
X171074868Y-34681475D01*
X171318089Y-34843990D01*
X171588342Y-34955932D01*
X171875240Y-35013000D01*
X172167760Y-35013000D01*
X172454658Y-34955932D01*
X172724911Y-34843990D01*
X172968132Y-34681475D01*
X173174975Y-34474632D01*
X173337490Y-34231411D01*
X173449432Y-33961158D01*
X173506500Y-33674260D01*
X173506500Y-33381740D01*
X173449432Y-33094842D01*
X173337490Y-32824589D01*
X173174975Y-32581368D01*
X172968132Y-32374525D01*
X172724911Y-32212010D01*
X172454658Y-32100068D01*
X172167760Y-32043000D01*
X171875240Y-32043000D01*
X171588342Y-32100068D01*
X171318089Y-32212010D01*
X171074868Y-32374525D01*
X170868025Y-32581368D01*
X170751500Y-32755760D01*
X170634975Y-32581368D01*
X170428132Y-32374525D01*
X170184911Y-32212010D01*
X169914658Y-32100068D01*
X169627760Y-32043000D01*
X169335240Y-32043000D01*
X169048342Y-32100068D01*
X168778089Y-32212010D01*
X168534868Y-32374525D01*
X168328025Y-32581368D01*
X168211500Y-32755760D01*
X168094975Y-32581368D01*
X167888132Y-32374525D01*
X167644911Y-32212010D01*
X167374658Y-32100068D01*
X167087760Y-32043000D01*
X166795240Y-32043000D01*
X166508342Y-32100068D01*
X166238089Y-32212010D01*
X165994868Y-32374525D01*
X165788025Y-32581368D01*
X165671500Y-32755760D01*
X165554975Y-32581368D01*
X165348132Y-32374525D01*
X165104911Y-32212010D01*
X164834658Y-32100068D01*
X164547760Y-32043000D01*
X164255240Y-32043000D01*
X163968342Y-32100068D01*
X163698089Y-32212010D01*
X163454868Y-32374525D01*
X163248025Y-32581368D01*
X163131500Y-32755760D01*
X163014975Y-32581368D01*
X162808132Y-32374525D01*
X162564911Y-32212010D01*
X162294658Y-32100068D01*
X162007760Y-32043000D01*
X161715240Y-32043000D01*
X161428342Y-32100068D01*
X161158089Y-32212010D01*
X160914868Y-32374525D01*
X160708025Y-32581368D01*
X160591500Y-32755760D01*
X160474975Y-32581368D01*
X160268132Y-32374525D01*
X160024911Y-32212010D01*
X159754658Y-32100068D01*
X159467760Y-32043000D01*
X159175240Y-32043000D01*
X158888342Y-32100068D01*
X158618089Y-32212010D01*
X158374868Y-32374525D01*
X158168025Y-32581368D01*
X158051500Y-32755760D01*
X157934975Y-32581368D01*
X157728132Y-32374525D01*
X157484911Y-32212010D01*
X157214658Y-32100068D01*
X156927760Y-32043000D01*
X156635240Y-32043000D01*
X156348342Y-32100068D01*
X156078089Y-32212010D01*
X155834868Y-32374525D01*
X155628025Y-32581368D01*
X155511500Y-32755760D01*
X155394975Y-32581368D01*
X155188132Y-32374525D01*
X154944911Y-32212010D01*
X154674658Y-32100068D01*
X154387760Y-32043000D01*
X154095240Y-32043000D01*
X153808342Y-32100068D01*
X153538089Y-32212010D01*
X153294868Y-32374525D01*
X153088025Y-32581368D01*
X152971500Y-32755760D01*
X152854975Y-32581368D01*
X152648132Y-32374525D01*
X152404911Y-32212010D01*
X152134658Y-32100068D01*
X151847760Y-32043000D01*
X151555240Y-32043000D01*
X151268342Y-32100068D01*
X150998089Y-32212010D01*
X150754868Y-32374525D01*
X150548025Y-32581368D01*
X150431500Y-32755760D01*
X150314975Y-32581368D01*
X150108132Y-32374525D01*
X149864911Y-32212010D01*
X149594658Y-32100068D01*
X149307760Y-32043000D01*
X149015240Y-32043000D01*
X148728342Y-32100068D01*
X148458089Y-32212010D01*
X148214868Y-32374525D01*
X148008025Y-32581368D01*
X147891500Y-32755760D01*
X147774975Y-32581368D01*
X147568132Y-32374525D01*
X147324911Y-32212010D01*
X147054658Y-32100068D01*
X146767760Y-32043000D01*
X146475240Y-32043000D01*
X146188342Y-32100068D01*
X145918089Y-32212010D01*
X145674868Y-32374525D01*
X145468025Y-32581368D01*
X145346305Y-32763534D01*
X145276678Y-32646645D01*
X145081769Y-32430412D01*
X144848420Y-32256359D01*
X144585599Y-32131175D01*
X144438390Y-32086524D01*
X144208500Y-32207845D01*
X143954500Y-32207845D01*
X143724610Y-32086524D01*
X143577401Y-32131175D01*
X143314580Y-32256359D01*
X143081231Y-32430412D01*
X142886322Y-32646645D01*
X142816695Y-32763534D01*
X142694975Y-32581368D01*
X142488132Y-32374525D01*
X142244911Y-32212010D01*
X141974658Y-32100068D01*
X141687760Y-32043000D01*
X141395240Y-32043000D01*
X141108342Y-32100068D01*
X140838089Y-32212010D01*
X140594868Y-32374525D01*
X140388025Y-32581368D01*
X140271500Y-32755760D01*
X140154975Y-32581368D01*
X139948132Y-32374525D01*
X139704911Y-32212010D01*
X139434658Y-32100068D01*
X139147760Y-32043000D01*
X138855240Y-32043000D01*
X138568342Y-32100068D01*
X138298089Y-32212010D01*
X138054868Y-32374525D01*
X137848025Y-32581368D01*
X137731500Y-32755760D01*
X137614975Y-32581368D01*
X137408132Y-32374525D01*
X137164911Y-32212010D01*
X136894658Y-32100068D01*
X136607760Y-32043000D01*
X136315240Y-32043000D01*
X136028342Y-32100068D01*
X135758089Y-32212010D01*
X135514868Y-32374525D01*
X135383013Y-32506380D01*
X135361002Y-32433820D01*
X135302037Y-32323506D01*
X135222685Y-32226815D01*
X135125994Y-32147463D01*
X135015680Y-32088498D01*
X134895982Y-32052188D01*
X134771500Y-32039928D01*
X134207250Y-32043000D01*
X134048500Y-32201750D01*
X133794500Y-32201750D01*
X133635750Y-32043000D01*
X133071500Y-32039928D01*
X132947018Y-32052188D01*
X132827320Y-32088498D01*
X132717006Y-32147463D01*
X132620315Y-32226815D01*
X132540963Y-32323506D01*
X132481998Y-32433820D01*
X132445688Y-32553518D01*
X132433428Y-32678000D01*
X128370000Y-32678000D01*
X128370000Y-31850000D01*
X174525000Y-31850000D01*
X174525001Y-53240000D01*
M02*
